<?xml version="1.0" standalone="no"?>
<!DOCTYPE svg PUBLIC "-//W3C//DTD SVG 20010904//EN"
 "http://www.w3.org/TR/2001/REC-SVG-20010904/DTD/svg10.dtd">
<svg version="1.0" xmlns="http://www.w3.org/2000/svg"
 width="558.000000pt" height="558.000000pt" viewBox="0 0 558.000000 558.000000"
 preserveAspectRatio="xMidYMid meet">
<metadata>
Created by potrace 1.14, written by Peter Selinger 2001-2017
</metadata>
<g transform="translate(0.000000,558.000000) scale(0.100000,-0.100000)"
fill="#000000" stroke="none">
<path d="M2455 5555 c-112 -15 -176 -25 -195 -29 -8 -1 -33 -6 -55 -11 -22 -4
-65 -14 -95 -22 -30 -8 -63 -16 -73 -18 -157 -34 -455 -158 -657 -272 -73 -41
-268 -172 -316 -212 -17 -14 -51 -42 -74 -61 -133 -107 -298 -276 -408 -420
-23 -30 -46 -59 -50 -65 -34 -43 -122 -175 -122 -183 0 -6 -4 -12 -8 -14 -22
-9 -157 -274 -209 -407 -14 -36 -31 -79 -38 -96 -39 -90 -109 -357 -129 -495
-3 -19 -9 -46 -12 -60 -4 -14 -8 -173 -10 -355 -3 -287 0 -347 16 -458 48
-315 161 -651 306 -909 26 -46 52 -93 58 -105 6 -13 14 -23 19 -23 4 0 7 -5 7
-10 0 -6 24 -45 53 -87 28 -41 59 -85 67 -98 8 -12 30 -40 47 -61 18 -21 43
-51 55 -67 36 -43 75 -86 148 -162 58 -61 103 -103 210 -196 88 -76 329 -242
415 -284 22 -11 42 -23 45 -27 6 -8 190 -94 255 -119 28 -11 59 -24 70 -29 52
-24 306 -99 390 -116 22 -4 45 -8 50 -9 23 -6 86 -17 175 -31 108 -18 538 -27
635 -14 33 5 87 11 120 15 33 3 68 8 77 11 9 3 41 9 70 15 29 5 62 11 73 13
85 16 279 74 395 118 143 55 317 141 465 231 22 13 174 117 190 129 6 5 28 22
50 39 22 17 60 47 85 67 52 42 330 316 330 326 0 3 8 14 18 24 24 26 70 85
120 156 171 241 284 460 375 726 29 84 93 326 101 380 2 19 9 60 14 90 27 148
37 521 20 695 -34 349 -128 668 -296 1003 -36 72 -69 132 -74 132 -4 0 -8 5
-8 11 0 16 -138 220 -205 304 -117 146 -244 277 -402 414 -57 49 -210 161
-221 161 -5 0 -12 4 -14 9 -5 15 -166 111 -298 177 -302 151 -563 229 -933
278 -126 17 -498 17 -622 1z"/>
</g>
</svg>
